<?xml version="1.0" encoding="UTF-8"?>
<svg id="Layer_1" data-name="Layer 1" xmlns="http://www.w3.org/2000/svg" xmlns:xlink="http://www.w3.org/1999/xlink" viewBox="20 45 100 45">
  <defs>
    <style>
      .cls-1 {
        fill: url(#linear-gradient);
      }

      .cls-1, .cls-2, .cls-3, .cls-4, .cls-5, .cls-6, .cls-7, .cls-8, .cls-9, .cls-10, .cls-11, .cls-12 {
        stroke-width: 0px;
      }

      .cls-2 {
        fill: #316879;
      }

      .cls-3 {
        fill: #808285;
      }

      .cls-4 {
        fill: #7fe7dc;
      }

      .cls-5 {
        fill: none;
      }

      .cls-6 {
        fill: #f47a60;
      }

      .cls-7 {
        fill: url(#linear-gradient-2);
      }

      .cls-8 {
        fill: url(#radial-gradient-2);
      }

      .cls-9 {
        fill: url(#linear-gradient-3);
      }

      .cls-10 {
        fill: url(#radial-gradient);
      }

      .cls-11 {
        fill: url(#Unbenannter_Verlauf_4);
      }

      .cls-12 {
        fill: url(#radial-gradient-3);
      }
    </style>
    <linearGradient id="linear-gradient" x1="84.85" y1="66.46" x2="76.94" y2="81.59" gradientUnits="userSpaceOnUse">
      <stop offset="0" stop-color="#7fe7dc"/>
      <stop offset="1" stop-color="#316879"/>
    </linearGradient>
    <linearGradient id="Unbenannter_Verlauf_4" data-name="Unbenannter Verlauf 4" x1="50.53" y1="79.82" x2="80.23" y2="79.82" gradientUnits="userSpaceOnUse">
      <stop offset="0" stop-color="#002533"/>
      <stop offset=".05" stop-color="#0c2935"/>
      <stop offset=".13" stop-color="#2c343b"/>
      <stop offset=".25" stop-color="#5f4644"/>
      <stop offset=".39" stop-color="#a65f51"/>
      <stop offset=".52" stop-color="#f47a60"/>
    </linearGradient>
    <linearGradient id="linear-gradient-2" x1="87" y1="67.59" x2="79.09" y2="82.71" xlink:href="#linear-gradient"/>
    <radialGradient id="radial-gradient" cx="96.81" cy="60.64" fx="96.81" fy="60.64" r="8.68" gradientUnits="userSpaceOnUse">
      <stop offset="0" stop-color="#7fe7dc"/>
      <stop offset="1" stop-color="#316879"/>
    </radialGradient>
    <radialGradient id="radial-gradient-2" cx="45.05" cy="54.56" fx="45.05" fy="54.56" r="11.91" xlink:href="#radial-gradient"/>
    <linearGradient id="linear-gradient-3" x1="54.57" y1="73.7" x2="57.41" y2="84.83" xlink:href="#linear-gradient"/>
    <radialGradient id="radial-gradient-3" cx="39.98" cy="78.19" fx="39.98" fy="78.19" r="10.7" xlink:href="#radial-gradient"/>
  </defs>
  <path class="cls-6" d="M74.91,67.6c3.07-1.37,4.29-3.82,4.29-6.37,0-6.65-4.86-9.58-11.37-9.58h-7.16c-2.07,0-4.01.99-5.23,2.67l-2.17,3h14.56c3.96,0,5.19,2.55,5.19,4.06,0,1.89-1.27,3.54-5.19,3.54l-8.67-.1c-3.02,0,1.34,2.55,1.34,5.57h0s7.33,0,7.33,0c2.55,0,6.18,1.56,6.18,4.53s-3.63,3.96-6.18,3.96h-11.51c-3.2,0-5.8,2.6-5.8,5.8h0c3,0,14.32,0,17.31,0,6.84,0,12.36-2.36,12.36-9.72,0-2.08-1.42-6.18-5.28-7.36Z"/>
  <path class="cls-5" d="M80.23,74.92s0-.08,0-.12c0,.05,0,.1,0,.15,0-.01,0-.02,0-.04Z"/>
  <path class="cls-1" d="M86.4,74.63h-6.18c0,.06,0,.11,0,.17,0,.04,0,.08,0,.12,0,.01,0,.02,0,.04,0,0,0,0,0,.01,0,7.36-5.52,9.72-12.36,9.72h6.18c6.84,0,12.36-2.36,12.36-9.72,0-.1,0-.22-.01-.33Z"/>
  <path class="cls-4" d="M80.22,74.63h0c0,.06,0,.11.01.17,0-.06,0-.11,0-.17Z"/>
  <path class="cls-11" d="M80.23,74.96s0,0,0-.01c-.03,3.08-3.64,3.93-6.18,3.93h-17.72c-3.2,0-5.8,2.6-5.8,5.8h0c3.17,0,14.19,0,17.34,0,6.84,0,12.36-2.36,12.36-9.72Z"/>
  <g>
    <path class="cls-7" d="M97.78,51.66h-6.18c-6.51,0-11.37,2.92-11.37,9.58v13.74h6.18v-4.59h7.32c3.02,0,5.47-2.45,5.47-5.47h0s-12.79,0-12.79,0v-3.54s0-.05,0-.07v-.07c0-6.65,4.86-9.58,11.37-9.58Z"/>
    <path class="cls-10" d="M91.59,57.32h2.13c3.02,0,5.47-2.45,5.47-5.47v-.19h-1.42c-6.51,0-11.37,2.92-11.37,9.58v.07c.04-1.52,1.28-3.98,5.19-3.98Z"/>
  </g>
  <path class="cls-8" d="M60.25,51.66h-9.74c-3.2,0-5.8,2.6-5.8,5.8h12.58c.12-2.34,1.25-4.42,2.96-5.8Z"/>
  <path class="cls-3" d="M44.7,79.48h-.45c.09,0,.17,0,.26,0,.07,0,.13,0,.19,0Z"/>
  <path class="cls-5" d="M54.41,56.65c-.03.17-.06.35-.08.53.02-.18.05-.36.08-.53Z"/>
  <path class="cls-5" d="M58.52,51.99c-.14.05-.27.09-.4.15.13-.05.27-.1.4-.15Z"/>
  <path class="cls-5" d="M57.4,52.49c-.11.06-.21.12-.32.19.1-.07.21-.13.32-.19Z"/>
  <path class="cls-5" d="M54.55,56.07c-.04.14-.08.29-.11.43.03-.15.07-.29.11-.43Z"/>
  <path class="cls-5" d="M54.28,62.23h0v8.34c0,.36-.02.7-.04,1.05.03-.34.04-.69.04-1.05v-1.54h0v-11.15c0-.21.01-.42.03-.63-.02.21-.03.42-.03.63v4.35Z"/>
  <path class="cls-5" d="M54.75,55.52c-.05.12-.1.25-.14.38.04-.13.09-.26.14-.38Z"/>
  <path class="cls-5" d="M57.94,52.22c-.12.05-.23.11-.35.17.11-.06.23-.11.35-.17Z"/>
  <path class="cls-5" d="M56.02,53.57c-.08.09-.16.17-.24.27.08-.09.16-.18.24-.27Z"/>
  <path class="cls-5" d="M55.3,54.48c-.07.1-.13.21-.19.32.06-.11.12-.21.19-.32Z"/>
  <path class="cls-5" d="M56.9,52.81c-.1.07-.19.14-.29.22.09-.08.19-.15.29-.22Z"/>
  <path class="cls-5" d="M55,54.99c-.06.11-.11.23-.17.35.05-.12.11-.23.17-.35Z"/>
  <path class="cls-5" d="M56.18,53.42c.09-.08.17-.16.26-.24-.09.08-.18.16-.26.24Z"/>
  <path class="cls-5" d="M55.64,54.01c-.07.09-.15.19-.22.29.07-.1.14-.2.22-.29Z"/>
  <path class="cls-5" d="M58.68,51.93c.38-.12.77-.2,1.18-.24,0,0-.01,0-.02,0-.4.04-.79.12-1.16.24Z"/>
  <path class="cls-9" d="M66.12,51.66h-5.61s-.01,0-.02,0c-.21,0-.43.01-.64.03-.41.04-.8.12-1.18.24-.05.02-.1.04-.15.05-.14.05-.27.09-.4.15-.06.03-.12.06-.18.08-.12.05-.24.11-.35.17-.06.03-.12.07-.19.11-.11.06-.21.12-.32.19-.06.04-.12.08-.18.13-.1.07-.2.14-.29.22-.06.05-.11.1-.17.15-.09.08-.18.16-.26.24-.05.05-.11.11-.16.16-.08.09-.16.17-.24.27-.05.06-.1.11-.14.17-.07.09-.15.19-.22.29-.04.06-.08.12-.12.18-.07.1-.13.21-.19.32-.04.06-.07.12-.1.19-.06.11-.11.23-.17.35-.03.06-.06.12-.08.18-.05.12-.1.25-.14.38-.02.06-.04.12-.06.18-.04.14-.08.29-.11.43-.01.05-.03.1-.04.15-.03.17-.06.35-.08.53,0,.02,0,.05-.01.07-.02.21-.03.42-.03.63v11.15h0v1.54c0,.36-.02.71-.04,1.05-.21,3.92-1.6,7.29-3.99,9.71h0c-2.1,2.12-4.97,3.52-8.49,3.9-.14.02-.29.03-.43.04s-.28.02-.42.03c-.2.01-.4.02-.6.03-.05,0-.1,0-.14,0,0,0,0,0-.01,0-.02,0-.05,0-.07,0-.05,0-.11,0-.16,0-.03,0-.06,0-.09,0s-.06,0-.09,0h6.23c4.45,0,8.01-1.49,10.5-4.01h0c2.61-2.63,4.03-6.39,4.03-10.76v-8.34h0v-4.35c0-3.21,2.43-5.85,5.55-6.19.22-.02.45-.04.67-.04h-.62Z"/>
  <path class="cls-2" d="M60.49,51.66c-.21,0-.43.01-.64.03.21-.02.42-.03.64-.03Z"/>
  <path class="cls-2" d="M56.62,53.03c-.06.05-.11.1-.17.15.06-.05.11-.1.17-.15Z"/>
  <path class="cls-2" d="M58.68,51.93c-.05.02-.1.04-.15.05.05-.02.1-.04.15-.05Z"/>
  <path class="cls-2" d="M57.09,52.69c-.06.04-.12.08-.18.13.06-.04.12-.09.18-.13Z"/>
  <path class="cls-2" d="M58.12,52.13c-.06.03-.12.06-.18.08.06-.03.12-.06.18-.08Z"/>
  <path class="cls-2" d="M57.59,52.39c-.06.03-.12.07-.19.11.06-.04.12-.07.19-.11Z"/>
  <path class="cls-2" d="M54.33,57.18s0,.05-.01.07c0-.02,0-.05.01-.07Z"/>
  <path class="cls-2" d="M56.02,53.57c.05-.05.1-.11.16-.16-.05.05-.11.11-.16.16Z"/>
  <path class="cls-2" d="M54.44,56.51c-.01.05-.03.1-.04.15.01-.05.02-.1.04-.15Z"/>
  <path class="cls-12" d="M50.25,81.33c2.39-2.42,3.78-5.79,3.99-9.71-.35,4.43-2.94,7.77-8.07,7.86h0c-.07,0-.13,0-.19,0-.09,0-.17,0-.26,0h-2.06c-3.24,0-5.86,2.62-5.86,5.86h1.95s.1,0,.15,0c4.38-.03,7.89-1.52,10.35-4.01h0Z"/>
  <path class="cls-2" d="M54.83,55.33c-.03.06-.06.12-.08.18.03-.06.05-.12.08-.18Z"/>
  <path class="cls-2" d="M55.42,54.3c-.04.06-.08.12-.12.18.04-.06.08-.12.12-.18Z"/>
  <path class="cls-2" d="M55.11,54.8c-.04.06-.07.12-.1.19.03-.06.07-.12.1-.19Z"/>
  <path class="cls-2" d="M54.61,55.9c-.02.06-.04.12-.06.18.02-.06.04-.12.06-.18Z"/>
  <path class="cls-2" d="M55.78,53.84c-.05.06-.1.11-.14.17.05-.06.09-.12.14-.17Z"/>
</svg>
