<?xml version="1.0" encoding="UTF-8"?>
<svg id="Layer_1" data-name="Layer 1" xmlns="http://www.w3.org/2000/svg" xmlns:xlink="http://www.w3.org/1999/xlink" viewBox="0 0 277.99 81.58">
  <defs>
    <style>
      .cls-1 {
        fill: url(#linear-gradient);
      }

      .cls-1, .cls-2, .cls-3, .cls-4, .cls-5, .cls-6, .cls-7, .cls-8, .cls-9, .cls-10, .cls-11, .cls-12 {
        stroke-width: 0px;
      }

      .cls-2 {
        fill: #316879;
      }

      .cls-3 {
        fill: #808285;
      }

      .cls-4 {
        fill: #7fe7dc;
      }

      .cls-5 {
        fill: none;
      }

      .cls-6 {
        fill: #f47a60;
      }

      .cls-7 {
        fill: url(#linear-gradient-2);
      }

      .cls-8 {
        fill: url(#radial-gradient-2);
      }

      .cls-9 {
        fill: url(#linear-gradient-3);
      }

      .cls-10 {
        fill: url(#radial-gradient);
      }

      .cls-11 {
        fill: url(#Unbenannter_Verlauf_4);
      }

      .cls-12 {
        fill: url(#radial-gradient-3);
      }
    </style>
    <linearGradient id="linear-gradient" x1="73.87" y1="38.76" x2="65.96" y2="53.88" gradientUnits="userSpaceOnUse">
      <stop offset="0" stop-color="#7fe7dc"/>
      <stop offset="1" stop-color="#316879"/>
    </linearGradient>
    <linearGradient id="Unbenannter_Verlauf_4" data-name="Unbenannter Verlauf 4" x1="39.54" y1="52.11" x2="69.25" y2="52.11" gradientUnits="userSpaceOnUse">
      <stop offset="0" stop-color="#002533"/>
      <stop offset=".05" stop-color="#0c2935"/>
      <stop offset=".13" stop-color="#2c343b"/>
      <stop offset=".25" stop-color="#5f4644"/>
      <stop offset=".39" stop-color="#a65f51"/>
      <stop offset=".52" stop-color="#f47a60"/>
    </linearGradient>
    <linearGradient id="linear-gradient-2" x1="76.02" y1="39.88" x2="68.11" y2="55" xlink:href="#linear-gradient"/>
    <radialGradient id="radial-gradient" cx="85.83" cy="32.93" fx="85.83" fy="32.93" r="8.68" gradientUnits="userSpaceOnUse">
      <stop offset="0" stop-color="#7fe7dc"/>
      <stop offset="1" stop-color="#316879"/>
    </radialGradient>
    <radialGradient id="radial-gradient-2" cx="34.07" cy="26.85" fx="34.07" fy="26.85" r="11.91" xlink:href="#radial-gradient"/>
    <linearGradient id="linear-gradient-3" x1="43.59" y1="46" x2="46.43" y2="57.12" xlink:href="#linear-gradient"/>
    <radialGradient id="radial-gradient-3" cx="29" cy="50.48" fx="29" fy="50.48" r="10.7" xlink:href="#radial-gradient"/>
  </defs>
  <g>
    <path class="cls-2" d="M97.05,37.88l1.22-1.17c.32.46.77.7,1.33.7.84,0,1.37-.53,1.37-1.49v-6.31h1.82v6.2c0,1.98-1.25,3.27-3.17,3.27-1.13,0-2-.45-2.56-1.21Z"/>
    <path class="cls-2" d="M104.21,36.26v-3.72h1.75v3.68c0,.8.42,1.26,1.15,1.26s1.16-.45,1.16-1.26v-3.68h1.74v3.72c0,1.69-1.18,2.83-2.89,2.83s-2.91-1.17-2.91-2.83Z"/>
    <path class="cls-2" d="M110.97,35.58c0-1.79,1.29-3.17,3.03-3.17.76,0,1.39.25,1.83.68v-.54h1.73v6.08c0,1.91-1.43,3.17-3.48,3.17-1.37,0-2.43-.5-3.05-1.39l1.1-1.1c.48.6,1.08.9,1.94.9,1.08,0,1.75-.57,1.75-1.55v-.53c-.45.42-1.08.66-1.82.66-1.74,0-3.03-1.38-3.03-3.2ZM115.92,35.6c0-.94-.62-1.61-1.58-1.61s-1.59.68-1.59,1.61.64,1.61,1.59,1.61,1.58-.66,1.58-1.61Z"/>
    <path class="cls-2" d="M118.66,35.74c0-1.9,1.47-3.35,3.37-3.35s3.16,1.35,3.16,3.2c0,.23-.03.46-.09.76h-4.69c.21.81.84,1.27,1.73,1.27.64,0,1.2-.23,1.58-.66l1.02,1.02c-.64.73-1.55,1.1-2.59,1.1-2,0-3.49-1.41-3.49-3.35ZM120.42,35.07h3.11c-.17-.8-.68-1.22-1.49-1.22-.82.01-1.41.46-1.62,1.22Z"/>
    <path class="cls-2" d="M126.27,32.54h1.74v.61c.45-.46,1.1-.74,1.86-.74,1.42,0,2.46,1.19,2.46,2.48v4.06h-1.74v-3.68c0-.76-.53-1.29-1.29-1.29s-1.29.53-1.29,1.29v3.68h-1.74v-6.41Z"/>
    <path class="cls-2" d="M133.34,35.76c0-1.9,1.33-3.34,3.11-3.34.72,0,1.35.25,1.82.68v-3.73h1.74v9.6h-1.73v-.57c-.45.44-1.1.7-1.83.7-1.78,0-3.11-1.43-3.11-3.33ZM138.37,35.74c0-1.01-.66-1.73-1.63-1.73s-1.62.72-1.62,1.73.66,1.74,1.62,1.74,1.63-.72,1.63-1.74Z"/>
    <path class="cls-6" d="M141.55,29.36h1.74v3.73c.45-.42,1.09-.68,1.82-.68,1.78,0,3.11,1.45,3.11,3.34s-1.33,3.33-3.11,3.33c-.74,0-1.38-.27-1.83-.7v.57h-1.73v-9.6ZM146.44,35.74c0-1.01-.68-1.73-1.63-1.73s-1.62.72-1.62,1.73.66,1.74,1.63,1.74,1.62-.72,1.62-1.74Z"/>
    <path class="cls-6" d="M149.26,30.51c0-.56.41-1,.98-1s.98.44.98,1-.41,1-.98,1-.98-.44-.98-1ZM149.36,32.54h1.75v6.41h-1.75v-6.41Z"/>
    <path class="cls-6" d="M152.66,29.36h1.74v9.6h-1.74v-9.6Z"/>
    <path class="cls-6" d="M155.54,35.76c0-1.9,1.33-3.34,3.11-3.34.72,0,1.35.25,1.82.68v-3.73h1.74v9.6h-1.73v-.57c-.45.44-1.1.7-1.83.7-1.78,0-3.11-1.43-3.11-3.33ZM160.57,35.74c0-1.01-.66-1.73-1.63-1.73s-1.62.72-1.62,1.73.66,1.74,1.62,1.74,1.63-.72,1.63-1.74Z"/>
    <path class="cls-6" d="M163.58,36.26v-3.72h1.75v3.68c0,.8.42,1.26,1.16,1.26s1.15-.45,1.15-1.26v-3.68h1.74v3.72c0,1.69-1.18,2.83-2.89,2.83s-2.91-1.17-2.91-2.83Z"/>
    <path class="cls-6" d="M170.76,32.54h1.74v.61c.45-.46,1.1-.74,1.86-.74,1.42,0,2.46,1.19,2.46,2.48v4.06h-1.74v-3.68c0-.76-.53-1.29-1.29-1.29s-1.29.53-1.29,1.29v3.68h-1.74v-6.41Z"/>
    <path class="cls-6" d="M177.8,35.58c0-1.79,1.29-3.17,3.03-3.17.76,0,1.39.25,1.83.68v-.54h1.73v6.08c0,1.91-1.43,3.17-3.48,3.17-1.37,0-2.43-.5-3.05-1.39l1.1-1.1c.48.6,1.08.9,1.94.9,1.08,0,1.75-.57,1.75-1.55v-.53c-.45.42-1.08.66-1.82.66-1.74,0-3.03-1.38-3.03-3.2ZM182.76,35.6c0-.94-.62-1.61-1.58-1.61s-1.59.68-1.59,1.61.64,1.61,1.59,1.61,1.58-.66,1.58-1.61Z"/>
    <path class="cls-6" d="M185.34,37.92l1.04-1.05c.44.49,1.02.74,1.74.74.56,0,.86-.16.86-.48,0-1.05-3.23-.38-3.23-2.74,0-1.22.94-2.02,2.47-2.02,1.06,0,1.95.38,2.51,1.12l-1.05,1.05c-.38-.48-.89-.68-1.45-.68-.52,0-.8.16-.8.45,0,.94,3.21.36,3.21,2.74,0,1.26-.97,2.04-2.52,2.04-1.1,0-2.15-.44-2.79-1.18Z"/>
    <path class="cls-2" d="M192.67,34.07h-1.49v-1.53h1.49v-.69c0-1.53,1.08-2.64,2.71-2.64.82,0,1.41.3,1.89.8l-1.1,1.11c-.2-.2-.41-.3-.76-.3-.62,0-1,.36-1,1v.73h1.9v1.53h-1.9v4.89h-1.74v-4.89Z"/>
    <path class="cls-2" d="M196.67,35.73c0-1.87,1.49-3.33,3.43-3.33s3.44,1.45,3.44,3.33-1.49,3.36-3.43,3.36-3.44-1.46-3.44-3.36ZM197.7,30.62c0-.56.41-1,.98-1s.97.44.97,1-.4,1-.97,1-.98-.44-.98-1ZM201.75,35.74c0-1.01-.69-1.71-1.66-1.71s-1.65.72-1.65,1.71.68,1.73,1.65,1.73,1.66-.72,1.66-1.73ZM200.56,30.62c0-.56.41-1,.98-1s.97.44.97,1-.4,1-.97,1-.98-.44-.98-1Z"/>
    <path class="cls-2" d="M204.65,32.54h1.74v.57c.39-.45.93-.7,1.66-.7.62,0,1.12.2,1.51.65l-1.09,1.25c-.21-.21-.46-.32-.82-.32-.76,0-1.26.46-1.26,1.42v3.54h-1.74v-6.41Z"/>
    <path class="cls-2" d="M209.61,35.76c0-1.9,1.33-3.34,3.11-3.34.72,0,1.35.25,1.82.68v-3.73h1.74v9.6h-1.73v-.57c-.45.44-1.1.7-1.83.7-1.78,0-3.11-1.43-3.11-3.33ZM214.64,35.74c0-1.01-.66-1.73-1.63-1.73s-1.62.72-1.62,1.73.66,1.74,1.62,1.74,1.63-.72,1.63-1.74Z"/>
    <path class="cls-2" d="M217.39,35.74c0-1.9,1.47-3.35,3.37-3.35s3.16,1.35,3.16,3.2c0,.23-.03.46-.09.76h-4.69c.21.81.84,1.27,1.73,1.27.64,0,1.2-.23,1.58-.66l1.02,1.02c-.64.73-1.55,1.1-2.59,1.1-2,0-3.49-1.41-3.49-3.35ZM219.14,35.07h3.11c-.17-.8-.68-1.22-1.49-1.22-.82.01-1.41.46-1.62,1.22Z"/>
    <path class="cls-2" d="M225,32.54h1.74v.57c.39-.45.93-.7,1.66-.7.62,0,1.12.2,1.51.65l-1.09,1.25c-.21-.21-.46-.32-.82-.32-.76,0-1.26.46-1.26,1.42v3.54h-1.74v-6.41Z"/>
    <path class="cls-2" d="M230.36,36.26v-3.72h1.75v3.68c0,.8.42,1.26,1.16,1.26s1.15-.45,1.15-1.26v-3.68h1.74v3.72c0,1.69-1.18,2.83-2.89,2.83s-2.91-1.17-2.91-2.83Z"/>
    <path class="cls-2" d="M237.54,32.54h1.74v.61c.45-.46,1.1-.74,1.86-.74,1.42,0,2.46,1.19,2.46,2.48v4.06h-1.74v-3.68c0-.76-.53-1.29-1.29-1.29s-1.29.53-1.29,1.29v3.68h-1.74v-6.41Z"/>
    <path class="cls-2" d="M244.58,35.58c0-1.79,1.29-3.17,3.03-3.17.76,0,1.39.25,1.83.68v-.54h1.73v6.08c0,1.91-1.43,3.17-3.48,3.17-1.37,0-2.43-.5-3.05-1.39l1.1-1.1c.48.6,1.08.9,1.94.9,1.08,0,1.75-.57,1.75-1.55v-.53c-.45.42-1.08.66-1.82.66-1.74,0-3.03-1.38-3.03-3.2ZM249.53,35.6c0-.94-.62-1.61-1.58-1.61s-1.59.68-1.59,1.61.64,1.61,1.59,1.61,1.58-.66,1.58-1.61Z"/>
    <path class="cls-2" d="M97.29,47.57c0-2.7,2.03-4.81,4.79-4.81,1.49,0,2.6.53,3.47,1.37l-1.22,1.22c-.53-.57-1.26-.9-2.24-.9-1.73,0-2.95,1.26-2.95,3.12s1.22,3.13,2.95,3.13c1.05,0,1.77-.35,2.3-.92l1.22,1.22c-.86.85-2,1.37-3.52,1.37-2.75,0-4.79-2.1-4.79-4.81Z"/>
    <path class="cls-2" d="M106.68,42.64h1.74v3.78c.44-.46,1.08-.73,1.82-.73,1.46,0,2.5,1.02,2.5,2.48v4.06h-1.74v-3.68c0-.76-.53-1.29-1.29-1.29s-1.29.53-1.29,1.29v3.68h-1.74v-9.6Z"/>
    <path class="cls-2" d="M113.72,49.03c0-1.9,1.47-3.35,3.37-3.35s3.16,1.35,3.16,3.2c0,.23-.03.46-.09.76h-4.69c.21.81.84,1.27,1.73,1.27.64,0,1.2-.23,1.58-.66l1.02,1.02c-.64.73-1.55,1.1-2.59,1.1-2,0-3.49-1.41-3.49-3.35ZM115.47,48.35h3.11c-.17-.8-.68-1.22-1.49-1.22-.82.01-1.41.46-1.62,1.22Z"/>
    <path class="cls-2" d="M121.33,45.83h1.74v.56c.44-.44,1.08-.69,1.79-.69.82,0,1.53.34,1.95.97.49-.62,1.23-.97,2.1-.97,1.42,0,2.52.94,2.52,2.48v4.06h-1.74v-3.78c0-.74-.53-1.18-1.22-1.18s-1.22.44-1.22,1.18v3.78h-1.74v-3.78c0-.74-.53-1.18-1.22-1.18s-1.22.44-1.22,1.18v3.78h-1.74v-6.41Z"/>
    <path class="cls-2" d="M132.85,45.83h1.74v.61c.45-.46,1.1-.74,1.86-.74,1.42,0,2.46,1.19,2.46,2.48v4.06h-1.74v-3.68c0-.76-.53-1.29-1.29-1.29s-1.29.53-1.29,1.29v3.68h-1.74v-6.41Z"/>
    <path class="cls-2" d="M140.21,43.8c0-.56.41-1,.98-1s.98.44.98,1-.41,1-.98,1-.98-.44-.98-1ZM140.32,45.83h1.75v6.41h-1.75v-6.41Z"/>
    <path class="cls-2" d="M144.55,47.35h-1.5v-1.53h1.5v-2.67h1.74v2.67h1.5v1.53h-1.5v4.89h-1.74v-4.89Z"/>
    <path class="cls-2" d="M148.14,51.24l3-3.9h-2.76v-1.51h5.26v1l-3,3.9h2.92v1.51h-5.42v-1Z"/>
  </g>
  <g>
    <path class="cls-6" d="M63.93,39.89c3.07-1.37,4.29-3.82,4.29-6.37,0-6.65-4.86-9.58-11.37-9.58h-7.16c-2.07,0-4.01.99-5.23,2.67l-2.17,3h14.56c3.96,0,5.19,2.55,5.19,4.06,0,1.89-1.27,3.54-5.19,3.54l-8.67-.1c-3.02,0,1.34,2.55,1.34,5.57h0s7.33,0,7.33,0c2.55,0,6.18,1.56,6.18,4.53s-3.63,3.96-6.18,3.96h-11.51c-3.2,0-5.8,2.6-5.8,5.8h0c3,0,14.32,0,17.31,0,6.84,0,12.36-2.36,12.36-9.72,0-2.08-1.42-6.18-5.28-7.36Z"/>
    <path class="cls-5" d="M69.25,47.21s0-.08,0-.12c0,.05,0,.1,0,.15,0-.01,0-.02,0-.04Z"/>
    <path class="cls-1" d="M75.42,46.92h-6.18c0,.06,0,.11,0,.17,0,.04,0,.08,0,.12,0,.01,0,.02,0,.04,0,0,0,0,0,.01,0,7.36-5.52,9.72-12.36,9.72h6.18c6.84,0,12.36-2.36,12.36-9.72,0-.1,0-.22-.01-.33Z"/>
    <path class="cls-4" d="M69.23,46.92h0c0,.06,0,.11.01.17,0-.06,0-.11,0-.17Z"/>
    <path class="cls-11" d="M69.25,47.25s0,0,0-.01c-.03,3.08-3.64,3.93-6.18,3.93h-17.72c-3.2,0-5.8,2.6-5.8,5.8h0c3.17,0,14.19,0,17.34,0,6.84,0,12.36-2.36,12.36-9.72Z"/>
    <g>
      <path class="cls-7" d="M86.8,23.95h-6.18c-6.51,0-11.37,2.92-11.37,9.58v13.74h6.18v-4.59h7.32c3.02,0,5.47-2.45,5.47-5.47h0s-12.79,0-12.79,0v-3.54s0-.05,0-.07v-.07c0-6.65,4.86-9.58,11.37-9.58Z"/>
      <path class="cls-10" d="M80.61,29.61h2.13c3.02,0,5.47-2.45,5.47-5.47v-.19h-1.42c-6.51,0-11.37,2.92-11.37,9.58v.07c.04-1.52,1.28-3.98,5.19-3.98Z"/>
    </g>
    <path class="cls-8" d="M49.27,23.95h-9.74c-3.2,0-5.8,2.6-5.8,5.8h12.58c.12-2.34,1.25-4.42,2.96-5.8Z"/>
    <path class="cls-3" d="M33.72,51.78h-.45c.09,0,.17,0,.26,0,.07,0,.13,0,.19,0Z"/>
    <path class="cls-5" d="M43.42,28.95c-.03.17-.06.35-.08.53.02-.18.05-.36.08-.53Z"/>
    <path class="cls-5" d="M47.54,24.28c-.14.05-.27.09-.4.15.13-.05.27-.1.4-.15Z"/>
    <path class="cls-5" d="M46.42,24.79c-.11.06-.21.12-.32.19.1-.07.21-.13.32-.19Z"/>
    <path class="cls-5" d="M43.57,28.37c-.04.14-.08.29-.11.43.03-.15.07-.29.11-.43Z"/>
    <path class="cls-5" d="M43.3,34.52h0v8.34c0,.36-.02.7-.04,1.05.03-.34.04-.69.04-1.05v-1.54h0v-11.15c0-.21.01-.42.03-.63-.02.21-.03.42-.03.63v4.35Z"/>
    <path class="cls-5" d="M43.77,27.81c-.05.12-.1.25-.14.38.04-.13.09-.26.14-.38Z"/>
    <path class="cls-5" d="M46.96,24.51c-.12.05-.23.11-.35.17.11-.06.23-.11.35-.17Z"/>
    <path class="cls-5" d="M45.04,25.87c-.08.09-.16.17-.24.27.08-.09.16-.18.24-.27Z"/>
    <path class="cls-5" d="M44.32,26.78c-.07.1-.13.21-.19.32.06-.11.12-.21.19-.32Z"/>
    <path class="cls-5" d="M45.92,25.1c-.1.07-.19.14-.29.22.09-.08.19-.15.29-.22Z"/>
    <path class="cls-5" d="M44.02,27.28c-.06.11-.11.23-.17.35.05-.12.11-.23.17-.35Z"/>
    <path class="cls-5" d="M45.2,25.71c.09-.08.17-.16.26-.24-.09.08-.18.16-.26.24Z"/>
    <path class="cls-5" d="M44.66,26.3c-.07.09-.15.19-.22.29.07-.1.14-.2.22-.29Z"/>
    <path class="cls-5" d="M47.69,24.22c.38-.12.77-.2,1.18-.24,0,0-.01,0-.02,0-.4.04-.79.12-1.16.24Z"/>
    <path class="cls-9" d="M55.14,23.95h-5.61s-.01,0-.02,0c-.21,0-.43.01-.64.03-.41.04-.8.12-1.18.24-.05.02-.1.04-.15.05-.14.05-.27.09-.4.15-.06.03-.12.06-.18.08-.12.05-.24.11-.35.17-.06.03-.12.07-.19.11-.11.06-.21.12-.32.19-.06.04-.12.08-.18.13-.1.07-.2.14-.29.22-.06.05-.11.1-.17.15-.09.08-.18.16-.26.24-.05.05-.11.11-.16.16-.08.09-.16.17-.24.27-.05.06-.1.11-.14.17-.07.09-.15.19-.22.29-.04.06-.08.12-.12.18-.07.1-.13.21-.19.32-.04.06-.07.12-.1.19-.06.11-.11.23-.17.35-.03.06-.06.12-.08.18-.05.12-.1.25-.14.38-.02.06-.04.12-.06.18-.04.14-.08.29-.11.43-.01.05-.03.1-.04.15-.03.17-.06.35-.08.53,0,.02,0,.05-.01.07-.02.21-.03.42-.03.63v11.15h0v1.54c0,.36-.02.71-.04,1.05-.21,3.92-1.6,7.29-3.99,9.71h0c-2.1,2.12-4.97,3.52-8.49,3.9-.14.02-.29.03-.43.04s-.28.02-.42.03c-.2.01-.4.02-.6.03-.05,0-.1,0-.14,0,0,0,0,0-.01,0-.02,0-.05,0-.07,0-.05,0-.11,0-.16,0-.03,0-.06,0-.09,0s-.06,0-.09,0h6.23c4.45,0,8.01-1.49,10.5-4.01h0c2.61-2.63,4.03-6.39,4.03-10.76v-8.34h0v-4.35c0-3.21,2.43-5.85,5.55-6.19.22-.02.45-.04.67-.04h-.62Z"/>
    <path class="cls-2" d="M49.51,23.95c-.21,0-.43.01-.64.03.21-.02.42-.03.64-.03Z"/>
    <path class="cls-2" d="M45.64,25.32c-.06.05-.11.1-.17.15.06-.05.11-.1.17-.15Z"/>
    <path class="cls-2" d="M47.69,24.22c-.05.02-.1.04-.15.05.05-.02.1-.04.15-.05Z"/>
    <path class="cls-2" d="M46.11,24.98c-.06.04-.12.08-.18.13.06-.04.12-.09.18-.13Z"/>
    <path class="cls-2" d="M47.14,24.43c-.06.03-.12.06-.18.08.06-.03.12-.06.18-.08Z"/>
    <path class="cls-2" d="M46.61,24.68c-.06.03-.12.07-.19.11.06-.04.12-.07.19-.11Z"/>
    <path class="cls-2" d="M43.34,29.48s0,.05-.01.07c0-.02,0-.05.01-.07Z"/>
    <path class="cls-2" d="M45.04,25.87c.05-.05.1-.11.16-.16-.05.05-.11.11-.16.16Z"/>
    <path class="cls-2" d="M43.46,28.8c-.01.05-.03.1-.04.15.01-.05.02-.1.04-.15Z"/>
    <path class="cls-12" d="M39.27,53.63c2.39-2.42,3.78-5.79,3.99-9.71-.35,4.43-2.94,7.77-8.07,7.86h0c-.07,0-.13,0-.19,0-.09,0-.17,0-.26,0h-2.06c-3.24,0-5.86,2.62-5.86,5.86h1.95s.1,0,.15,0c4.38-.03,7.89-1.52,10.35-4.01h0Z"/>
    <path class="cls-2" d="M43.85,27.62c-.03.06-.06.12-.08.18.03-.06.05-.12.08-.18Z"/>
    <path class="cls-2" d="M44.44,26.59c-.04.06-.08.12-.12.18.04-.06.08-.12.12-.18Z"/>
    <path class="cls-2" d="M44.12,27.09c-.04.06-.07.12-.1.19.03-.06.07-.12.1-.19Z"/>
    <path class="cls-2" d="M43.63,28.19c-.02.06-.04.12-.06.18.02-.06.04-.12.06-.18Z"/>
    <path class="cls-2" d="M44.8,26.13c-.05.06-.1.11-.14.17.05-.06.09-.12.14-.17Z"/>
  </g>
</svg>