<?xml version="1.0" encoding="UTF-8"?>
<svg id="Layer_1" data-name="Layer 1" xmlns="http://www.w3.org/2000/svg" version="1.1" xmlns:xlink="http://www.w3.org/1999/xlink" viewBox="0 0 65.4 35.9">
  <defs>
    <style>
      .cls-1 {
        fill: url(#Unbenannter_Verlauf_6);
      }

      .cls-1, .cls-2, .cls-3, .cls-4, .cls-5, .cls-6, .cls-7, .cls-8, .cls-9, .cls-10, .cls-11, .cls-12 {
        stroke-width: 0px;
      }

      .cls-2 {
        fill: #f47a60;
      }

      .cls-3 {
        fill: url(#Unbenannter_Verlauf_5);
      }

      .cls-4 {
        fill: url(#Unbenannter_Verlauf_2);
      }

      .cls-5 {
        fill: none;
      }

      .cls-6 {
        fill: url(#Unbenannter_Verlauf);
      }

      .cls-7 {
        fill: url(#Unbenannter_Verlauf_3);
      }

      .cls-8 {
        fill: url(#Unbenannter_Verlauf_4);
      }

      .cls-9 {
        fill: #808285;
      }

      .cls-10 {
        fill: #7fe7dc;
      }

      .cls-11 {
        fill: #316879;
      }

      .cls-12 {
        fill: url(#Unbenannter_Verlauf_7);
      }
    </style>
    <linearGradient id="Unbenannter_Verlauf" data-name="Unbenannter Verlauf" x1="49" y1="21" x2="41.1" y2="5.9" gradientTransform="translate(0 36.9) scale(1 -1)" gradientUnits="userSpaceOnUse">
      <stop offset="0" stop-color="#7fe7dc"/>
      <stop offset="1" stop-color="#316879"/>
    </linearGradient>
    <linearGradient id="Unbenannter_Verlauf_2" data-name="Unbenannter Verlauf 2" x1="14.7" y1="7.7" x2="44.4" y2="7.7" gradientTransform="translate(0 36.9) scale(1 -1)" gradientUnits="userSpaceOnUse">
      <stop offset="0" stop-color="#002533"/>
      <stop offset="0" stop-color="#0c2935"/>
      <stop offset=".1" stop-color="#2c343b"/>
      <stop offset=".2" stop-color="#5f4644"/>
      <stop offset=".4" stop-color="#a65f51"/>
      <stop offset=".5" stop-color="#f47a60"/>
    </linearGradient>
    <linearGradient id="Unbenannter_Verlauf_3" data-name="Unbenannter Verlauf 3" x1="51.2" y1="19.9" x2="43.3" y2="4.8" gradientTransform="translate(0 36.9) scale(1 -1)" gradientUnits="userSpaceOnUse">
      <stop offset="0" stop-color="#7fe7dc"/>
      <stop offset="1" stop-color="#316879"/>
    </linearGradient>
    <radialGradient id="Unbenannter_Verlauf_4" data-name="Unbenannter Verlauf 4" cx="61" cy="26.8" fx="61" fy="26.8" r="8.7" gradientTransform="translate(0 36.9) scale(1 -1)" gradientUnits="userSpaceOnUse">
      <stop offset="0" stop-color="#7fe7dc"/>
      <stop offset="1" stop-color="#316879"/>
    </radialGradient>
    <radialGradient id="Unbenannter_Verlauf_5" data-name="Unbenannter Verlauf 5" cx="9.2" cy="32.9" fx="9.2" fy="32.9" r="11.9" gradientTransform="translate(0 36.9) scale(1 -1)" gradientUnits="userSpaceOnUse">
      <stop offset="0" stop-color="#7fe7dc"/>
      <stop offset="1" stop-color="#316879"/>
    </radialGradient>
    <linearGradient id="Unbenannter_Verlauf_6" data-name="Unbenannter Verlauf 6" x1="18.8" y1="13.8" x2="21.6" y2="2.6" gradientTransform="translate(0 36.9) scale(1 -1)" gradientUnits="userSpaceOnUse">
      <stop offset="0" stop-color="#7fe7dc"/>
      <stop offset="1" stop-color="#316879"/>
    </linearGradient>
    <radialGradient id="Unbenannter_Verlauf_7" data-name="Unbenannter Verlauf 7" cx="4.2" cy="9.3" fx="4.2" fy="9.3" r="10.7" gradientTransform="translate(0 36.9) scale(1 -1)" gradientUnits="userSpaceOnUse">
      <stop offset="0" stop-color="#7fe7dc"/>
      <stop offset="1" stop-color="#316879"/>
    </radialGradient>
  </defs>
  <path class="cls-2" d="M39.1,17.1c3.1-1.4,4.3-3.8,4.3-6.4,0-6.7-4.9-9.6-11.4-9.6h-7.2c-2.1,0-4,1-5.2,2.7l-2.2,3h14.6c4,0,5.2,2.5,5.2,4.1s-1.3,3.5-5.2,3.5h-8.7c-3,0,1.3,2.5,1.3,5.5h7.3c2.6,0,6.2,1.6,6.2,4.5s-3.6,4-6.2,4h-11.5c-3.2,0-5.8,2.6-5.8,5.8h17.3c6.8,0,12.4-2.4,12.4-9.7s-1.4-6.2-5.3-7.4Z"/>
  <path class="cls-5" d="M44.4,24.4h0c0,0,0,0,0,0h0s0,0,0,0Z"/>
  <path class="cls-6" d="M50.6,24.1h-6.2v.2h0v.2h0c0,7.4-5.5,9.7-12.4,9.7h6.2c6.8,0,12.4-2.4,12.4-9.7s0-.2,0-.3h0Z"/>
  <path class="cls-10" d="M44.4,24.1h0c0,0,0,.1,0,.2v-.2h0Z"/>
  <path class="cls-4" d="M44.4,24.4h0c0,3.1-3.6,3.9-6.2,3.9h-17.7c-3.2,0-5.8,2.6-5.8,5.8h17.3c6.8,0,12.4-2.4,12.4-9.7Z"/>
  <g>
    <path class="cls-7" d="M62,1.1h-6.2c-6.5,0-11.4,2.9-11.4,9.6v13.7h6.2v-4.6h7.3c3,0,5.5-2.4,5.5-5.5h-12.8v-3.5h0c0-6.8,4.9-9.7,11.4-9.7Z"/>
    <path class="cls-8" d="M55.8,6.8h2.1c3,0,5.5-2.5,5.5-5.5v-.2h-1.4c-6.5,0-11.4,2.9-11.4,9.6h0c0-1.5,1.3-3.9,5.2-3.9h0Z"/>
  </g>
  <path class="cls-3" d="M24.4,1.1h-9.7c-3.2,0-5.8,2.6-5.8,5.8h12.6c.1-2.3,1.2-4.4,3-5.8Z"/>
  <path class="cls-9" d="M8.9,28.9h-.5.5Z"/>
  <path class="cls-5" d="M18.6,6.1c0,.2,0,.3,0,.5,0-.2,0-.4,0-.5Z"/>
  <path class="cls-5" d="M22.7,1.5c-.1,0-.3,0-.4.2.1,0,.3,0,.4-.2Z"/>
  <path class="cls-5" d="M21.6,2c-.1,0-.2.1-.3.2,0,0,.2-.1.3-.2Z"/>
  <path class="cls-5" d="M18.7,5.5c0,.1,0,.3-.1.4,0-.2,0-.3.1-.4Z"/>
  <path class="cls-5" d="M18.5,11.7h0v8.3c0,.4,0,.7,0,1.1,0-.3,0-.7,0-1.1v-1.5h0V7.3c0-.2,0-.4,0-.6,0,.2,0,.4,0,.6v4.4Z"/>
  <path class="cls-5" d="M18.9,5c0,.1,0,.2-.1.4,0-.1,0-.3.1-.4Z"/>
  <path class="cls-5" d="M22.1,1.7c-.1,0-.2.1-.3.2.1,0,.2-.1.3-.2Z"/>
  <path class="cls-5" d="M20.2,3c0,0-.2.2-.2.3,0,0,.2-.2.2-.3Z"/>
  <path class="cls-5" d="M19.5,3.9c0,0-.1.2-.2.3,0-.1.1-.2.2-.3Z"/>
  <path class="cls-5" d="M21.1,2.3c0,0-.2.1-.3.2,0,0,.2-.2.3-.2Z"/>
  <path class="cls-5" d="M19.2,4.5c0,.1-.1.2-.2.3,0-.1.1-.2.2-.3Z"/>
  <path class="cls-5" d="M20.4,2.9c0,0,.2-.2.3-.2,0,0-.2.2-.3.2Z"/>
  <path class="cls-5" d="M19.8,3.5c0,0-.2.2-.2.3,0,0,.1-.2.2-.3Z"/>
  <path class="cls-5" d="M22.9,1.4c.4-.1.8-.2,1.2-.2h0c-.4,0-.8.1-1.2.2Z"/>
  <path class="cls-1" d="M30.3,1.1h-5.6c-.2,0-.4,0-.6,0-.4,0-.8.1-1.2.2,0,0,0,0-.2,0-.1,0-.3,0-.4.2,0,0-.1,0-.2,0-.1,0-.2.1-.3.2,0,0-.1,0-.2.1-.1,0-.2.1-.3.2,0,0-.1,0-.2.1,0,0-.2.1-.3.2,0,0-.1,0-.2.2,0,0-.2.2-.3.2l-.2.2c0,0-.2.2-.2.3,0,0,0,.1-.1.2,0,0-.2.2-.2.3,0,0,0,.1-.1.2,0,0-.1.2-.2.3,0,0,0,.1,0,.2,0,.1-.1.2-.2.3,0,0,0,.1,0,.2,0,.1,0,.2-.1.4,0,0,0,.1,0,.2,0,.1,0,.3-.1.4,0,0,0,0,0,.2,0,.2,0,.3,0,.5,0,0,0,0,0,0,0,.2,0,.4,0,.6v11.1h0v1.5c0,.4,0,.7,0,1.1-.2,3.9-1.6,7.3-4,9.7h0c-2.1,2.1-5,3.5-8.5,3.9-.1,0-.3,0-.4,0s-.3,0-.4,0c-.2,0-.4,0-.6,0h-.6,6.2c4.5,0,8-1.5,10.5-4h0c2.6-2.6,4-6.4,4-10.8v-8.3h0v-4.3c0-3.2,2.4-5.8,5.5-6.2.2,0,.4,0,.7,0,0,0-.6,0-.6,0Z"/>
  <path class="cls-11" d="M24.7,1.1c-.2,0-.4,0-.6,0,.2,0,.4,0,.6,0Z"/>
  <path class="cls-11" d="M20.8,2.5c0,0-.1,0-.2.2,0,0,.1,0,.2-.2Z"/>
  <path class="cls-11" d="M22.9,1.4s0,0-.2,0c0,0,0,0,.2,0Z"/>
  <path class="cls-11" d="M21.3,2.2c0,0-.1,0-.2.1,0,0,.1,0,.2-.1Z"/>
  <path class="cls-11" d="M22.3,1.6c0,0-.1,0-.2,0,0,0,.1,0,.2,0Z"/>
  <path class="cls-11" d="M21.8,1.9c0,0-.1,0-.2.1,0,0,.1,0,.2-.1Z"/>
  <path class="cls-11" d="M18.5,6.6s0,0,0,0c0,0,0,0,0,0Z"/>
  <path class="cls-11" d="M20.2,3s0-.1.2-.2l-.2.2Z"/>
  <path class="cls-11" d="M18.6,6s0,0,0,.2c0,0,0,0,0-.2Z"/>
  <path class="cls-12" d="M14.4,30.8c2.4-2.4,3.8-5.8,4-9.7-.3,4.4-2.9,7.8-8.1,7.9h-2.5c-3.2,0-5.9,2.6-5.9,5.9h2.1c4.4,0,7.9-1.5,10.4-4h0Z"/>
  <path class="cls-11" d="M19,4.8c0,0,0,.1,0,.2,0,0,0-.1,0-.2Z"/>
  <path class="cls-11" d="M19.6,3.8c0,0,0,.1-.1.2,0,0,0-.1.1-.2Z"/>
  <path class="cls-11" d="M19.3,4.3c0,0,0,.1,0,.2,0,0,0-.1,0-.2Z"/>
  <path class="cls-11" d="M18.8,5.4c0,0,0,.1,0,.2,0,0,0-.1,0-.2Z"/>
  <path class="cls-11" d="M20,3.3c0,0,0,.1-.1.2,0,0,0-.1.1-.2Z"/>
</svg>